<svg width="48" height="51" viewBox="0 0 48 51" fill="none" xmlns="http://www.w3.org/2000/svg">
<path d="M24.8224 17.4545L24.5455 27.6392H21.946L21.6619 17.4545H24.8224ZM23.2457 32.1847C22.777 32.1847 22.3745 32.0189 22.0384 31.6875C21.7022 31.3513 21.5365 30.9489 21.5412 30.4801C21.5365 30.0161 21.7022 29.6184 22.0384 29.2869C22.3745 28.9555 22.777 28.7898 23.2457 28.7898C23.6955 28.7898 24.0909 28.9555 24.4318 29.2869C24.7727 29.6184 24.9455 30.0161 24.9503 30.4801C24.9455 30.7926 24.8627 31.0791 24.7017 31.3395C24.5455 31.5952 24.3395 31.8011 24.0838 31.9574C23.8281 32.1089 23.5488 32.1847 23.2457 32.1847Z" fill="#F98D10"/>
<path d="M5.73762 36.75L24 3.14167L42.2624 36.75H5.73762Z" stroke="#F98D10" stroke-width="3"/>
</svg>
