{"accessors" : [{"bufferView" : 0, "byteOffset" : 0, "componentType" : 5123, "count" : 45756, "type" : "SCALAR", "max" : [45755], "min" : [0]}, {"bufferView" : 1, "byteOffset" : 0, "componentType" : 5126, "count" : 45756, "type" : "VEC3", "max" : [34.21082305908203, 67.36532592773438, 0.48428013920783997], "min" : [-34.21082305908203, -76.19842529296875, -134.38404846191406], "name" : "POSITION"}, {"bufferView" : 1, "byteOffset" : 12, "componentType" : 5126, "count" : 45756, "type" : "VEC3", "max" : [0.9994099140167236, 0.9999147057533264, 0.9999986290931702], "min" : [-0.9994099140167236, -0.9995909929275513, -0.999841570854187], "name" : "NORMAL"}, {"bufferView" : 1, "byteOffset" : 24, "componentType" : 5126, "count" : 45756, "type" : "VEC3", "max" : [1, 1, 1], "min" : [1, 1, 1], "name" : "COLOR_0"}, {"bufferView" : 1, "byteOffset" : 36, "componentType" : 5126, "count" : 45756, "type" : "VEC2", "max" : [0.9929585456848145, -0.007858284749090672], "min" : [0.017578125, -0.9931422472000122], "name" : "TEXCOORD_0"}, {"bufferView" : 0, "byteOffset" : 91512, "componentType" : 5123, "count" : 5856, "type" : "SCALAR", "max" : [5855], "min" : [0]}, {"bufferView" : 2, "byteOffset" : 0, "componentType" : 5126, "count" : 5856, "type" : "VEC3", "max" : [1256.4000244140625, 0, 0.9000000357627869], "min" : [4.800000190734863, 0, -69.10000610351562], "name" : "POSITION"}, {"bufferView" : 2, "byteOffset" : 12, "componentType" : 5126, "count" : 5856, "type" : "VEC3", "max" : [0, 1.0000044107437134, 0], "min" : [0, -1.0000044107437134, 0], "name" : "NORMAL"}, {"bufferView" : 2, "byteOffset" : 24, "componentType" : 5126, "count" : 5856, "type" : "VEC2", "max" : [1, -0], "min" : [0, -0], "name" : "TEXCOORD_0"}], "asset" : {"generator" : "Aspose.3D 22.12", "version" : "2.0"}, "buffers" : [{"uri" : "data:application/octet-stream;base64,", "byteLength" : 2303892}], "bufferViews" : [{"buffer" : 0, "byteOffset" : 0, "byteLength" : 103224, "target" : 34963}, {"buffer" : 0, "byteOffset" : 103228, "byteLength" : 2013264, "byteStride" : 44, "target" : 34962}, {"buffer" : 0, "byteOffset" : 2116496, "byteLength" : 187392, "byteStride" : 32, "target" : 34962}], "cameras" : [{"perspective" : {"aspectRatio" : 1.5, "yfov" : 0.6911112070083618, "zfar" : 100000, "znear" : 10.000000149011612}, "type" : "perspective", "name" : "Camera.001"}], "images" : [{"uri" : "E:\\3D-Mallikirjasto\\Characters\\Shiba_Inu01_T_2_LP\\Shiba_DIF01.png"}], "materials" : [{"name" : "DIF", "pbrMetallicRoughness" : {"baseColorFactor" : [0.800000011920929, 0.800000011920929, 0.800000011920929, 1], "baseColorTexture" : {"index" : 0, "texCoord" : 0}, "metallicFactor" : 0, "roughnessFactor" : 0}, "emissiveFactor" : [0, 0, 0], "alphaMode" : "OPAQUE", "doubleSided" : false}], "meshes" : [{"primitives" : [{"attributes" : {"POSITION" : 1, "NORMAL" : 2, "COLOR_0" : 3, "TEXCOORD_0" : 4}, "indices" : 0, "material" : 0, "mode" : 4}], "name" : "Shiba inu"}, {"primitives" : [{"attributes" : {"POSITION" : 6, "NORMAL" : 7, "TEXCOORD_0" : 8}, "indices" : 5, "mode" : 4}], "name" : "Text"}], "nodes" : [{"matrix" : [0.18692821264266968, 0, 0, 0, 0, -3.045447143130469E-08, 0.18692821264266718, 0, 0, -0.18692821264266718, -3.045447143130469E-08, 0, 0, 0, 0, 1], "mesh" : 0, "name" : "Shiba inu"}, {"camera" : 0, "matrix" : [-53.12948347617473, -24.19282405333472, -81.1909091216524, 0, -13.24705557389572, 97.02940656545897, -20.243721354981645, 0, 83.67660434715134, 2.0260043273334046E-05, -54.75607190813496, 0, 41.21957015991211, 31.219955444335938, 65.5205307006836, 1], "name" : "Camera"}, {"matrix" : [0.9610469300719795, 0, 0.27638501947453237, 0, 0, 1, 0, 0, -0.27638501947453237, 0, 0.9610469300719795, 0, -4.227202415466309, 0.9169629812240601, 3.913433074951172, 1], "mesh" : 1, "name" : "Check Out Our Online Courses"}, {"children" : [1, 2], "name" : "Holotna.Com"}], "samplers" : [{"magFilter" : 9729, "minFilter" : 9729, "wrapS" : 10497, "wrapT" : 10497}], "scene" : 0, "scenes" : [{"nodes" : [0, 3]}], "textures" : [{"sampler" : 0, "source" : 0, "name" : "base_color_texture"}]}